PathFileType  4	(X/Y/Z) C:\Users\antoi\Documents\MyRepositories\mobilecap\ResultsAnalysis
DataRate	CameraRate	NumFrames	NumMarkers	Units	OrigDataRate	OrigDataStartFrame	OrigNumFrames
100.0	100.0	4	51	mm	100.0	1238	1414
Frame#	Time	r_knee			r_shank_antsup			r_ankle			r_calc			r_5meta			r_toe			L_knee			L_shank_antsup			L_ankle			L_calc			L_5meta			L_toe			r_sh2			r_sh3			r_sh4			L_sh2			L_sh3			r_thigh1			r_thigh2			r_thigh3			r_thigh4			r_thigh5			L_thigh1			L_thigh2			L_thigh3			L_thigh4			r.ASIS			r.PSIS			L.ASIS			L.PSIS			C7			R_Shoulder			L_Shoulder			R_Sternum			L_Sternum			R_humerus			R_elbow_med			R_elbow_lat			R_forearm			R_wrist_radius			R_wrist_ulna			L_humerus			L_elbow_med			L_elbow_lat			L_forearm			L_wrist_radius			L_wrist_ulna			R_HJC			L_HJC			R_HJC_reg			L_HJC_reg			
		X1	Y1	Z1	X2	Y2	Z2	X3	Y3	Z3	X4	Y4	Z4	X5	Y5	Z5	X6	Y6	Z6	X7	Y7	Z7	X8	Y8	Z8	X9	Y9	Z9	X10	Y10	Z10	X11	Y11	Z11	X12	Y12	Z12	X13	Y13	Z13	X14	Y14	Z14	X15	Y15	Z15	X16	Y16	Z16	X17	Y17	Z17	X18	Y18	Z18	X19	Y19	Z19	X20	Y20	Z20	X21	Y21	Z21	X22	Y22	Z22	X23	Y23	Z23	X24	Y24	Z24	X25	Y25	Z25	X26	Y26	Z26	X27	Y27	Z27	X28	Y28	Z28	X29	Y29	Z29	X30	Y30	Z30	X31	Y31	Z31	X32	Y32	Z32	X33	Y33	Z33	X34	Y34	Z34	X35	Y35	Z35	X36	Y36	Z36	X37	Y37	Z37	X38	Y38	Z38	X39	Y39	Z39	X40	Y40	Z40	X41	Y41	Z41	X42	Y42	Z42	X43	Y43	Z43	X44	Y44	Z44	X45	Y45	Z45	X46	Y46	Z46	X47	Y47	Z47	X48	Y48	Z48	X49	Y49	Z49	X50	Y50	Z50	X51	Y51	Z51	

1238	12.37000000	-110.46446	478.38295	-361.62760	-85.01689	359.01416	-386.42181	-290.50538	96.75606	-449.31195	-350.59059	65.72384	-513.63438	-183.35642	37.75365	-371.26256	-128.44675	59.02602	-433.58512	-153.75474	497.17706	-927.86055	-97.47419	393.46814	-930.85620	-284.48726	96.62214	-904.16062	-346.41693	68.46858	-846.47056	-155.49633	35.99063	-956.04279	-115.61705	60.63413	-891.87246	-125.19058	256.99488	-428.82397	-152.48675	367.84444	-349.80948	-187.20556	257.73923	-370.98924	-180.29681	419.92855	-955.58698	-200.74012	300.05785	-966.12985	-305.94747	631.90389	-415.50703	-195.22750	612.05903	-408.19666	-180.82329	579.91464	-351.44538	-323.20146	558.30306	-329.87932	-206.35467	533.49488	-333.36788	-396.02607	527.35189	-879.73411	-264.66133	509.69287	-919.88842	-363.11359	617.07663	-820.11375	-236.74787	607.60042	-869.92563	-434.71111	647.19607	-469.72929	-531.59717	709.02721	-552.43482	-397.04019	586.69311	-723.22471	-525.43367	698.80370	-644.87456	-107.67931	989.20309	-576.78000	-51.96636	888.98349	-405.66357	-38.01088	907.00858	-728.73670	-35.57920	832.57793	-553.86832	-38.22039	833.31407	-596.85867	10.91535	784.68598	-328.98630	67.73197	554.94240	-344.02938	92.89417	607.39275	-271.46111	191.27881	702.63875	-371.60510	270.21251	752.50499	-438.18978	304.81199	729.00118	-430.72573	17.13793	787.16506	-813.53098	33.29193	556.94878	-801.14700	75.45571	602.54503	-858.77393	152.25028	692.01341	-744.65266	238.91592	743.67363	-689.89633	272.65371	717.56341	-711.02572	-505.11405	581.50682	-488.05258	-495.42528	537.32697	-696.59680	-509.36084	578.19893	-503.44574	-497.87106	559.13859	-675.80724	
1239	12.38000000	-110.37575	478.38020	-361.74693	-84.93694	359.03159	-386.51133	-290.47643	96.76010	-449.20915	-350.63077	65.67902	-513.52666	-183.29399	37.77026	-371.15824	-128.44973	58.95539	-433.56239	-153.63608	497.23481	-927.52523	-97.40366	393.61377	-930.81269	-284.49581	96.66808	-904.13470	-346.39889	68.47427	-846.50337	-155.47871	35.96876	-956.02182	-115.62181	60.60923	-891.89062	-125.12827	256.90031	-428.84999	-152.33590	367.79350	-349.81928	-187.08121	257.60878	-371.02554	-180.15126	419.89250	-955.15905	-200.67830	300.13208	-966.07186	-305.48150	632.62559	-415.19314	-194.78312	612.45942	-408.10810	-180.44449	580.20252	-351.38918	-323.32887	559.09272	-329.34310	-206.10576	533.76243	-333.48334	-395.79574	528.18567	-879.28198	-264.51465	510.27935	-919.71885	-362.65522	617.94646	-819.99677	-236.43255	607.90646	-869.38076	-434.16244	648.42647	-469.07401	-531.35961	709.95614	-552.29087	-395.57138	587.91282	-722.39321	-525.43499	700.07801	-644.27530	-108.00630	990.95474	-576.27838	-52.21673	890.45166	-405.23326	-38.58707	908.82261	-728.55906	-35.97822	834.20140	-553.54880	-38.70458	835.03252	-596.67641	10.39703	785.97160	-328.48563	66.39904	556.48582	-343.95712	91.99747	608.40074	-271.16318	190.67103	703.34173	-371.21116	269.81561	753.28054	-437.45425	304.44104	729.51035	-430.21284	16.41059	788.91936	-813.34434	32.43470	558.69573	-801.30047	74.58319	604.28880	-858.82269	151.72891	693.31834	-744.49986	238.47381	744.86784	-689.81046	272.18627	718.93096	-711.36002	-504.41889	582.56699	-487.52905	-494.11529	538.35064	-696.03448	-508.07123	578.88159	-502.59583	-496.96760	560.36654	-675.02078	
1240	12.39000000	-110.23166	478.37014	-362.04487	-84.86811	359.05132	-386.67824	-290.44473	96.74929	-449.16557	-350.65223	65.68879	-513.37989	-183.26363	37.71881	-371.11818	-128.42654	58.92574	-433.56133	-153.46834	497.33868	-927.17783	-97.30708	393.68304	-930.59202	-284.51754	96.70446	-904.04679	-346.42295	68.48812	-846.53994	-155.46853	35.95685	-955.99816	-115.62599	60.58785	-891.88705	-125.07097	256.87852	-428.91452	-152.24197	367.79168	-349.97555	-187.10713	257.68197	-370.94728	-179.99769	419.84514	-954.70084	-200.57333	300.23467	-966.04282	-304.91879	633.57608	-414.81998	-194.33177	613.01849	-407.99469	-179.95340	580.60861	-351.36362	-323.56697	560.56284	-328.47744	-205.80785	534.20936	-333.57395	-395.59837	529.31754	-878.76664	-264.33682	511.02794	-919.40705	-362.08152	619.06018	-819.85405	-235.93799	608.35823	-868.86818	-433.51896	649.97712	-468.32455	-531.11184	711.46822	-551.78193	-394.77420	589.51386	-721.59939	-525.32297	701.69422	-643.90204	-108.40361	993.14884	-575.73954	-52.51276	892.46630	-404.82043	-39.20064	911.05895	-728.14205	-36.35184	836.41435	-553.14834	-39.16941	837.28228	-596.49887	9.85881	787.82319	-328.06655	65.09492	558.73830	-343.79407	91.18668	610.05464	-270.75704	190.09082	704.70035	-370.81104	269.40920	754.73133	-436.57728	304.05952	730.66638	-429.58817	15.69282	791.23292	-813.13606	31.53876	560.95385	-801.37403	73.68573	606.53027	-858.85290	151.12228	695.34979	-744.43120	237.96986	746.75721	-689.75768	271.55915	720.70639	-711.23006	-503.85357	584.12015	-486.90058	-493.33654	539.82053	-695.37793	-507.18962	580.23446	-501.72773	-496.35264	561.93778	-674.17286	
1241	12.40000000	-110.05281	478.41427	-362.56680	-84.78013	359.10123	-386.89946	-290.43997	96.78343	-449.09236	-350.68384	65.74213	-513.20839	-183.28212	37.65784	-371.15253	-128.40323	58.93306	-433.57793	-153.27128	497.45554	-926.71837	-97.14146	393.42114	-929.94137	-284.52922	96.74085	-903.98593	-346.42076	68.50938	-846.54600	-155.46510	35.96220	-955.98419	-115.60217	60.55934	-891.84097	-125.01483	256.90198	-429.11438	-152.12089	367.84774	-350.27146	-186.99995	257.77590	-370.89376	-179.87316	419.86147	-954.28962	-200.46505	300.38140	-966.01815	-304.22689	634.65191	-414.59020	-193.79659	613.68153	-407.83493	-179.32645	581.13883	-351.43742	-323.36749	562.18066	-327.87811	-205.38716	534.82676	-333.61100	-395.32944	530.70900	-878.18243	-264.08785	511.90796	-919.07398	-361.40326	620.38773	-819.65083	-235.24757	609.03325	-868.48089	-432.65369	651.65104	-467.93563	-530.92323	713.60342	-551.02516	-395.07647	591.89977	-721.51909	-525.09671	703.75859	-643.42679	-108.82435	995.80806	-575.21539	-52.80370	895.03439	-404.37072	-39.87540	913.84926	-727.80085	-36.75826	839.23089	-552.69562	-39.62347	840.04216	-596.28852	9.38994	790.17649	-327.65639	64.40517	560.85120	-343.22309	90.37891	612.30920	-270.25482	189.56465	706.75621	-370.25635	268.99755	756.53603	-436.09971	303.66009	732.44366	-428.98906	14.91346	794.02936	-812.81177	30.63071	563.66570	-801.18836	72.70322	609.29122	-858.78634	150.39167	697.96862	-744.43081	237.35308	749.14466	-689.57514	270.88910	723.00703	-710.91806	-503.26156	585.97547	-486.52510	-493.44557	542.08577	-695.12157	-506.93968	582.32258	-501.50923	-496.06760	563.95319	-673.92305	
